{
  "accessors": [
    {
      "bufferView": 2,
      "componentType": 5126,
      "count": 1132,
      "max": [
        97.63059997558594,
        138.85299682617188,
        140.6710968017578
      ],
      "min": [
        -97.20159912109375,
        -295.2605895996094,
        -1.6216000318527222
      ],
      "type": "VEC3"
    },
    {
      "bufferView": 2,
      "byteOffset": 13584,
      "componentType": 5126,
      "count": 1132,
      "max": [
        1.0,
        0.9955247044563293,
        0.9997022747993469
      ],
      "min": [
        -1.0,
        -1.0,
        -0.9999762773513794
      ],
      "type": "VEC3"
    },
    {
      "bufferView": 1,
      "componentType": 5126,
      "count": 1132,
      "max": [
        0.9697999954223633,
        0.982699990272522
      ],
      "min": [
        0.020800000056624413,
        0.012500000186264515
      ],
      "type": "VEC2"
    },
    {
      "bufferView": 0,
      "componentType": 5125,
      "count": 4116,
      "type": "SCALAR"
    }
  ],
  "asset": {
    "extras": {
      "author": "slowpoly (https://sketchfab.com/slowpoly)",
      "license": "CC-BY-4.0 (http://creativecommons.org/licenses/by/4.0/)",
      "source": "https://sketchfab.com/3d-models/mitsubishi-lancer-evolution-1997-7558ef08987d4a22bd317ac1fae12c1f",
      "title": "Mitsubishi Lancer Evolution 1997"
    },
    "generator": "Sketchfab-15.36.0",
    "version": "2.0"
  },
  "bufferViews": [
    {
      "buffer": 0,
      "byteLength": 16464,
      "name": "floatBufferViews",
      "target": 34963
    },
    {
      "buffer": 0,
      "byteLength": 9056,
      "byteOffset": 16464,
      "byteStride": 8,
      "name": "floatBufferViews",
      "target": 34962
    },
    {
      "buffer": 0,
      "byteLength": 27168,
      "byteOffset": 25520,
      "byteStride": 12,
      "name": "floatBufferViews",
      "target": 34962
    }
  ],
  "buffers": [
    {
      "byteLength": 52688,
      "uri": "scene.bin"
    }
  ],
  "images": [
    {
      "uri": "textures/Standard09F041_baseColor.png"
    }
  ],
  "materials": [
    {
      "doubleSided": true,
      "emissiveFactor": [
        0.5,
        0.5,
        0.5
      ],
      "emissiveTexture": {
        "index": 0
      },
      "name": "Standard09F041",
      "pbrMetallicRoughness": {
        "baseColorTexture": {
          "index": 0
        },
        "metallicFactor": 0.0,
        "roughnessFactor": 0.6
      }
    }
  ],
  "meshes": [
    {
      "name": "Object_0",
      "primitives": [
        {
          "attributes": {
            "NORMAL": 1,
            "POSITION": 0,
            "TEXCOORD_0": 2
          },
          "indices": 3,
          "material": 0,
          "mode": 4
        }
      ]
    }
  ],
  "nodes": [
    {
      "children": [
        1
      ],
      "matrix": [
        1.0,
        0.0,
        0.0,
        0.0,
        0.0,
        2.220446049250313e-16,
        -1.0,
        0.0,
        0.0,
        1.0,
        2.220446049250313e-16,
        0.0,
        0.0,
        0.0,
        0.0,
        1.0
      ],
      "name": "Sketchfab_model"
    },
    {
      "children": [
        2
      ],
      "name": "5cc185bf9eac40119115a2b1558e8f95.obj.cleaner.materialmerger.gles"
    },
    {
      "mesh": 0,
      "name": "Object_2"
    }
  ],
  "samplers": [
    {
      "magFilter": 9729,
      "minFilter": 9987,
      "wrapS": 10497,
      "wrapT": 10497
    }
  ],
  "scene": 0,
  "scenes": [
    {
      "name": "Sketchfab_Scene",
      "nodes": [
        0
      ]
    }
  ],
  "textures": [
    {
      "sampler": 0,
      "source": 0
    }
  ]
}
